<?xml version="1.0" standalone="no"?>
<svg xmlns="http://www.w3.org/2000/svg" version="1.1" width="328" height="328">
	<!-- Created with https://api.qrserver.com (QR Code API, see goQR.me/api for information) -->
	<title>QR Code</title>
	<desc>https://foosbuzz.eu-gb.mybluemix.net/index.html</desc>
	<rect style="fill:rgb(255, 255, 255);fill-opacity:1" x="0" y="0" width="328" height="328" />
	<g id="elements">
		<path style="fill:rgb(0, 0, 0)" d="M 48,48 l 8,0 0,8 -8,0 z M 56,48 l 8,0 0,8 -8,0 z M 64,48 l 8,0 0,8 -8,0 z M 72,48 l 8,0 0,8 -8,0 z M 80,48 l 8,0 0,8 -8,0 z M 88,48 l 8,0 0,8 -8,0 z M 96,48 l 8,0 0,8 -8,0 z M 120,48 l 8,0 0,8 -8,0 z M 152,48 l 8,0 0,8 -8,0 z M 184,48 l 8,0 0,8 -8,0 z M 192,48 l 8,0 0,8 -8,0 z M 200,48 l 8,0 0,8 -8,0 z M 224,48 l 8,0 0,8 -8,0 z M 232,48 l 8,0 0,8 -8,0 z M 240,48 l 8,0 0,8 -8,0 z M 248,48 l 8,0 0,8 -8,0 z M 256,48 l 8,0 0,8 -8,0 z M 264,48 l 8,0 0,8 -8,0 z M 272,48 l 8,0 0,8 -8,0 z M 48,56 l 8,0 0,8 -8,0 z M 96,56 l 8,0 0,8 -8,0 z M 112,56 l 8,0 0,8 -8,0 z M 120,56 l 8,0 0,8 -8,0 z M 136,56 l 8,0 0,8 -8,0 z M 144,56 l 8,0 0,8 -8,0 z M 152,56 l 8,0 0,8 -8,0 z M 160,56 l 8,0 0,8 -8,0 z M 168,56 l 8,0 0,8 -8,0 z M 184,56 l 8,0 0,8 -8,0 z M 224,56 l 8,0 0,8 -8,0 z M 272,56 l 8,0 0,8 -8,0 z M 48,64 l 8,0 0,8 -8,0 z M 64,64 l 8,0 0,8 -8,0 z M 72,64 l 8,0 0,8 -8,0 z M 80,64 l 8,0 0,8 -8,0 z M 96,64 l 8,0 0,8 -8,0 z M 120,64 l 8,0 0,8 -8,0 z M 128,64 l 8,0 0,8 -8,0 z M 136,64 l 8,0 0,8 -8,0 z M 160,64 l 8,0 0,8 -8,0 z M 168,64 l 8,0 0,8 -8,0 z M 176,64 l 8,0 0,8 -8,0 z M 192,64 l 8,0 0,8 -8,0 z M 200,64 l 8,0 0,8 -8,0 z M 224,64 l 8,0 0,8 -8,0 z M 240,64 l 8,0 0,8 -8,0 z M 248,64 l 8,0 0,8 -8,0 z M 256,64 l 8,0 0,8 -8,0 z M 272,64 l 8,0 0,8 -8,0 z M 48,72 l 8,0 0,8 -8,0 z M 64,72 l 8,0 0,8 -8,0 z M 72,72 l 8,0 0,8 -8,0 z M 80,72 l 8,0 0,8 -8,0 z M 96,72 l 8,0 0,8 -8,0 z M 112,72 l 8,0 0,8 -8,0 z M 120,72 l 8,0 0,8 -8,0 z M 136,72 l 8,0 0,8 -8,0 z M 152,72 l 8,0 0,8 -8,0 z M 160,72 l 8,0 0,8 -8,0 z M 168,72 l 8,0 0,8 -8,0 z M 176,72 l 8,0 0,8 -8,0 z M 184,72 l 8,0 0,8 -8,0 z M 224,72 l 8,0 0,8 -8,0 z M 240,72 l 8,0 0,8 -8,0 z M 248,72 l 8,0 0,8 -8,0 z M 256,72 l 8,0 0,8 -8,0 z M 272,72 l 8,0 0,8 -8,0 z M 48,80 l 8,0 0,8 -8,0 z M 64,80 l 8,0 0,8 -8,0 z M 72,80 l 8,0 0,8 -8,0 z M 80,80 l 8,0 0,8 -8,0 z M 96,80 l 8,0 0,8 -8,0 z M 128,80 l 8,0 0,8 -8,0 z M 144,80 l 8,0 0,8 -8,0 z M 152,80 l 8,0 0,8 -8,0 z M 176,80 l 8,0 0,8 -8,0 z M 184,80 l 8,0 0,8 -8,0 z M 192,80 l 8,0 0,8 -8,0 z M 200,80 l 8,0 0,8 -8,0 z M 208,80 l 8,0 0,8 -8,0 z M 224,80 l 8,0 0,8 -8,0 z M 240,80 l 8,0 0,8 -8,0 z M 248,80 l 8,0 0,8 -8,0 z M 256,80 l 8,0 0,8 -8,0 z M 272,80 l 8,0 0,8 -8,0 z M 48,88 l 8,0 0,8 -8,0 z M 96,88 l 8,0 0,8 -8,0 z M 112,88 l 8,0 0,8 -8,0 z M 128,88 l 8,0 0,8 -8,0 z M 168,88 l 8,0 0,8 -8,0 z M 176,88 l 8,0 0,8 -8,0 z M 208,88 l 8,0 0,8 -8,0 z M 224,88 l 8,0 0,8 -8,0 z M 272,88 l 8,0 0,8 -8,0 z M 48,96 l 8,0 0,8 -8,0 z M 56,96 l 8,0 0,8 -8,0 z M 64,96 l 8,0 0,8 -8,0 z M 72,96 l 8,0 0,8 -8,0 z M 80,96 l 8,0 0,8 -8,0 z M 88,96 l 8,0 0,8 -8,0 z M 96,96 l 8,0 0,8 -8,0 z M 112,96 l 8,0 0,8 -8,0 z M 128,96 l 8,0 0,8 -8,0 z M 144,96 l 8,0 0,8 -8,0 z M 160,96 l 8,0 0,8 -8,0 z M 176,96 l 8,0 0,8 -8,0 z M 192,96 l 8,0 0,8 -8,0 z M 208,96 l 8,0 0,8 -8,0 z M 224,96 l 8,0 0,8 -8,0 z M 232,96 l 8,0 0,8 -8,0 z M 240,96 l 8,0 0,8 -8,0 z M 248,96 l 8,0 0,8 -8,0 z M 256,96 l 8,0 0,8 -8,0 z M 264,96 l 8,0 0,8 -8,0 z M 272,96 l 8,0 0,8 -8,0 z M 144,104 l 8,0 0,8 -8,0 z M 160,104 l 8,0 0,8 -8,0 z M 168,104 l 8,0 0,8 -8,0 z M 176,104 l 8,0 0,8 -8,0 z M 200,104 l 8,0 0,8 -8,0 z M 208,104 l 8,0 0,8 -8,0 z M 48,112 l 8,0 0,8 -8,0 z M 56,112 l 8,0 0,8 -8,0 z M 64,112 l 8,0 0,8 -8,0 z M 72,112 l 8,0 0,8 -8,0 z M 80,112 l 8,0 0,8 -8,0 z M 96,112 l 8,0 0,8 -8,0 z M 104,112 l 8,0 0,8 -8,0 z M 112,112 l 8,0 0,8 -8,0 z M 120,112 l 8,0 0,8 -8,0 z M 128,112 l 8,0 0,8 -8,0 z M 144,112 l 8,0 0,8 -8,0 z M 152,112 l 8,0 0,8 -8,0 z M 160,112 l 8,0 0,8 -8,0 z M 168,112 l 8,0 0,8 -8,0 z M 184,112 l 8,0 0,8 -8,0 z M 216,112 l 8,0 0,8 -8,0 z M 232,112 l 8,0 0,8 -8,0 z M 248,112 l 8,0 0,8 -8,0 z M 264,112 l 8,0 0,8 -8,0 z M 48,120 l 8,0 0,8 -8,0 z M 56,120 l 8,0 0,8 -8,0 z M 72,120 l 8,0 0,8 -8,0 z M 80,120 l 8,0 0,8 -8,0 z M 88,120 l 8,0 0,8 -8,0 z M 104,120 l 8,0 0,8 -8,0 z M 112,120 l 8,0 0,8 -8,0 z M 120,120 l 8,0 0,8 -8,0 z M 152,120 l 8,0 0,8 -8,0 z M 176,120 l 8,0 0,8 -8,0 z M 184,120 l 8,0 0,8 -8,0 z M 200,120 l 8,0 0,8 -8,0 z M 208,120 l 8,0 0,8 -8,0 z M 216,120 l 8,0 0,8 -8,0 z M 224,120 l 8,0 0,8 -8,0 z M 232,120 l 8,0 0,8 -8,0 z M 240,120 l 8,0 0,8 -8,0 z M 272,120 l 8,0 0,8 -8,0 z M 80,128 l 8,0 0,8 -8,0 z M 88,128 l 8,0 0,8 -8,0 z M 96,128 l 8,0 0,8 -8,0 z M 120,128 l 8,0 0,8 -8,0 z M 136,128 l 8,0 0,8 -8,0 z M 144,128 l 8,0 0,8 -8,0 z M 152,128 l 8,0 0,8 -8,0 z M 160,128 l 8,0 0,8 -8,0 z M 168,128 l 8,0 0,8 -8,0 z M 192,128 l 8,0 0,8 -8,0 z M 208,128 l 8,0 0,8 -8,0 z M 216,128 l 8,0 0,8 -8,0 z M 232,128 l 8,0 0,8 -8,0 z M 48,136 l 8,0 0,8 -8,0 z M 64,136 l 8,0 0,8 -8,0 z M 104,136 l 8,0 0,8 -8,0 z M 120,136 l 8,0 0,8 -8,0 z M 128,136 l 8,0 0,8 -8,0 z M 136,136 l 8,0 0,8 -8,0 z M 176,136 l 8,0 0,8 -8,0 z M 208,136 l 8,0 0,8 -8,0 z M 216,136 l 8,0 0,8 -8,0 z M 224,136 l 8,0 0,8 -8,0 z M 240,136 l 8,0 0,8 -8,0 z M 248,136 l 8,0 0,8 -8,0 z M 264,136 l 8,0 0,8 -8,0 z M 64,144 l 8,0 0,8 -8,0 z M 72,144 l 8,0 0,8 -8,0 z M 80,144 l 8,0 0,8 -8,0 z M 88,144 l 8,0 0,8 -8,0 z M 96,144 l 8,0 0,8 -8,0 z M 104,144 l 8,0 0,8 -8,0 z M 120,144 l 8,0 0,8 -8,0 z M 136,144 l 8,0 0,8 -8,0 z M 144,144 l 8,0 0,8 -8,0 z M 152,144 l 8,0 0,8 -8,0 z M 160,144 l 8,0 0,8 -8,0 z M 184,144 l 8,0 0,8 -8,0 z M 200,144 l 8,0 0,8 -8,0 z M 232,144 l 8,0 0,8 -8,0 z M 248,144 l 8,0 0,8 -8,0 z M 256,144 l 8,0 0,8 -8,0 z M 56,152 l 8,0 0,8 -8,0 z M 80,152 l 8,0 0,8 -8,0 z M 88,152 l 8,0 0,8 -8,0 z M 112,152 l 8,0 0,8 -8,0 z M 120,152 l 8,0 0,8 -8,0 z M 128,152 l 8,0 0,8 -8,0 z M 144,152 l 8,0 0,8 -8,0 z M 176,152 l 8,0 0,8 -8,0 z M 192,152 l 8,0 0,8 -8,0 z M 200,152 l 8,0 0,8 -8,0 z M 224,152 l 8,0 0,8 -8,0 z M 232,152 l 8,0 0,8 -8,0 z M 240,152 l 8,0 0,8 -8,0 z M 272,152 l 8,0 0,8 -8,0 z M 56,160 l 8,0 0,8 -8,0 z M 64,160 l 8,0 0,8 -8,0 z M 96,160 l 8,0 0,8 -8,0 z M 104,160 l 8,0 0,8 -8,0 z M 112,160 l 8,0 0,8 -8,0 z M 128,160 l 8,0 0,8 -8,0 z M 144,160 l 8,0 0,8 -8,0 z M 160,160 l 8,0 0,8 -8,0 z M 168,160 l 8,0 0,8 -8,0 z M 184,160 l 8,0 0,8 -8,0 z M 192,160 l 8,0 0,8 -8,0 z M 208,160 l 8,0 0,8 -8,0 z M 232,160 l 8,0 0,8 -8,0 z M 248,160 l 8,0 0,8 -8,0 z M 256,160 l 8,0 0,8 -8,0 z M 64,168 l 8,0 0,8 -8,0 z M 72,168 l 8,0 0,8 -8,0 z M 88,168 l 8,0 0,8 -8,0 z M 112,168 l 8,0 0,8 -8,0 z M 120,168 l 8,0 0,8 -8,0 z M 128,168 l 8,0 0,8 -8,0 z M 176,168 l 8,0 0,8 -8,0 z M 192,168 l 8,0 0,8 -8,0 z M 208,168 l 8,0 0,8 -8,0 z M 232,168 l 8,0 0,8 -8,0 z M 264,168 l 8,0 0,8 -8,0 z M 48,176 l 8,0 0,8 -8,0 z M 56,176 l 8,0 0,8 -8,0 z M 64,176 l 8,0 0,8 -8,0 z M 88,176 l 8,0 0,8 -8,0 z M 96,176 l 8,0 0,8 -8,0 z M 104,176 l 8,0 0,8 -8,0 z M 112,176 l 8,0 0,8 -8,0 z M 120,176 l 8,0 0,8 -8,0 z M 136,176 l 8,0 0,8 -8,0 z M 144,176 l 8,0 0,8 -8,0 z M 152,176 l 8,0 0,8 -8,0 z M 160,176 l 8,0 0,8 -8,0 z M 184,176 l 8,0 0,8 -8,0 z M 208,176 l 8,0 0,8 -8,0 z M 248,176 l 8,0 0,8 -8,0 z M 256,176 l 8,0 0,8 -8,0 z M 48,184 l 8,0 0,8 -8,0 z M 64,184 l 8,0 0,8 -8,0 z M 80,184 l 8,0 0,8 -8,0 z M 136,184 l 8,0 0,8 -8,0 z M 184,184 l 8,0 0,8 -8,0 z M 192,184 l 8,0 0,8 -8,0 z M 200,184 l 8,0 0,8 -8,0 z M 208,184 l 8,0 0,8 -8,0 z M 224,184 l 8,0 0,8 -8,0 z M 232,184 l 8,0 0,8 -8,0 z M 240,184 l 8,0 0,8 -8,0 z M 256,184 l 8,0 0,8 -8,0 z M 272,184 l 8,0 0,8 -8,0 z M 48,192 l 8,0 0,8 -8,0 z M 64,192 l 8,0 0,8 -8,0 z M 72,192 l 8,0 0,8 -8,0 z M 96,192 l 8,0 0,8 -8,0 z M 104,192 l 8,0 0,8 -8,0 z M 128,192 l 8,0 0,8 -8,0 z M 160,192 l 8,0 0,8 -8,0 z M 168,192 l 8,0 0,8 -8,0 z M 208,192 l 8,0 0,8 -8,0 z M 216,192 l 8,0 0,8 -8,0 z M 224,192 l 8,0 0,8 -8,0 z M 232,192 l 8,0 0,8 -8,0 z M 256,192 l 8,0 0,8 -8,0 z M 48,200 l 8,0 0,8 -8,0 z M 80,200 l 8,0 0,8 -8,0 z M 88,200 l 8,0 0,8 -8,0 z M 104,200 l 8,0 0,8 -8,0 z M 112,200 l 8,0 0,8 -8,0 z M 120,200 l 8,0 0,8 -8,0 z M 128,200 l 8,0 0,8 -8,0 z M 160,200 l 8,0 0,8 -8,0 z M 168,200 l 8,0 0,8 -8,0 z M 192,200 l 8,0 0,8 -8,0 z M 208,200 l 8,0 0,8 -8,0 z M 216,200 l 8,0 0,8 -8,0 z M 224,200 l 8,0 0,8 -8,0 z M 232,200 l 8,0 0,8 -8,0 z M 264,200 l 8,0 0,8 -8,0 z M 48,208 l 8,0 0,8 -8,0 z M 64,208 l 8,0 0,8 -8,0 z M 72,208 l 8,0 0,8 -8,0 z M 80,208 l 8,0 0,8 -8,0 z M 88,208 l 8,0 0,8 -8,0 z M 96,208 l 8,0 0,8 -8,0 z M 104,208 l 8,0 0,8 -8,0 z M 120,208 l 8,0 0,8 -8,0 z M 136,208 l 8,0 0,8 -8,0 z M 144,208 l 8,0 0,8 -8,0 z M 152,208 l 8,0 0,8 -8,0 z M 160,208 l 8,0 0,8 -8,0 z M 176,208 l 8,0 0,8 -8,0 z M 184,208 l 8,0 0,8 -8,0 z M 208,208 l 8,0 0,8 -8,0 z M 216,208 l 8,0 0,8 -8,0 z M 224,208 l 8,0 0,8 -8,0 z M 232,208 l 8,0 0,8 -8,0 z M 240,208 l 8,0 0,8 -8,0 z M 256,208 l 8,0 0,8 -8,0 z M 264,208 l 8,0 0,8 -8,0 z M 272,208 l 8,0 0,8 -8,0 z M 112,216 l 8,0 0,8 -8,0 z M 120,216 l 8,0 0,8 -8,0 z M 136,216 l 8,0 0,8 -8,0 z M 152,216 l 8,0 0,8 -8,0 z M 160,216 l 8,0 0,8 -8,0 z M 176,216 l 8,0 0,8 -8,0 z M 208,216 l 8,0 0,8 -8,0 z M 240,216 l 8,0 0,8 -8,0 z M 248,216 l 8,0 0,8 -8,0 z M 256,216 l 8,0 0,8 -8,0 z M 264,216 l 8,0 0,8 -8,0 z M 272,216 l 8,0 0,8 -8,0 z M 48,224 l 8,0 0,8 -8,0 z M 56,224 l 8,0 0,8 -8,0 z M 64,224 l 8,0 0,8 -8,0 z M 72,224 l 8,0 0,8 -8,0 z M 80,224 l 8,0 0,8 -8,0 z M 88,224 l 8,0 0,8 -8,0 z M 96,224 l 8,0 0,8 -8,0 z M 112,224 l 8,0 0,8 -8,0 z M 120,224 l 8,0 0,8 -8,0 z M 128,224 l 8,0 0,8 -8,0 z M 144,224 l 8,0 0,8 -8,0 z M 168,224 l 8,0 0,8 -8,0 z M 176,224 l 8,0 0,8 -8,0 z M 200,224 l 8,0 0,8 -8,0 z M 208,224 l 8,0 0,8 -8,0 z M 224,224 l 8,0 0,8 -8,0 z M 240,224 l 8,0 0,8 -8,0 z M 248,224 l 8,0 0,8 -8,0 z M 256,224 l 8,0 0,8 -8,0 z M 48,232 l 8,0 0,8 -8,0 z M 96,232 l 8,0 0,8 -8,0 z M 120,232 l 8,0 0,8 -8,0 z M 128,232 l 8,0 0,8 -8,0 z M 168,232 l 8,0 0,8 -8,0 z M 200,232 l 8,0 0,8 -8,0 z M 208,232 l 8,0 0,8 -8,0 z M 240,232 l 8,0 0,8 -8,0 z M 272,232 l 8,0 0,8 -8,0 z M 48,240 l 8,0 0,8 -8,0 z M 64,240 l 8,0 0,8 -8,0 z M 72,240 l 8,0 0,8 -8,0 z M 80,240 l 8,0 0,8 -8,0 z M 96,240 l 8,0 0,8 -8,0 z M 112,240 l 8,0 0,8 -8,0 z M 120,240 l 8,0 0,8 -8,0 z M 128,240 l 8,0 0,8 -8,0 z M 152,240 l 8,0 0,8 -8,0 z M 184,240 l 8,0 0,8 -8,0 z M 208,240 l 8,0 0,8 -8,0 z M 216,240 l 8,0 0,8 -8,0 z M 224,240 l 8,0 0,8 -8,0 z M 232,240 l 8,0 0,8 -8,0 z M 240,240 l 8,0 0,8 -8,0 z M 256,240 l 8,0 0,8 -8,0 z M 272,240 l 8,0 0,8 -8,0 z M 48,248 l 8,0 0,8 -8,0 z M 64,248 l 8,0 0,8 -8,0 z M 72,248 l 8,0 0,8 -8,0 z M 80,248 l 8,0 0,8 -8,0 z M 96,248 l 8,0 0,8 -8,0 z M 112,248 l 8,0 0,8 -8,0 z M 120,248 l 8,0 0,8 -8,0 z M 128,248 l 8,0 0,8 -8,0 z M 136,248 l 8,0 0,8 -8,0 z M 152,248 l 8,0 0,8 -8,0 z M 176,248 l 8,0 0,8 -8,0 z M 192,248 l 8,0 0,8 -8,0 z M 208,248 l 8,0 0,8 -8,0 z M 248,248 l 8,0 0,8 -8,0 z M 256,248 l 8,0 0,8 -8,0 z M 264,248 l 8,0 0,8 -8,0 z M 272,248 l 8,0 0,8 -8,0 z M 48,256 l 8,0 0,8 -8,0 z M 64,256 l 8,0 0,8 -8,0 z M 72,256 l 8,0 0,8 -8,0 z M 80,256 l 8,0 0,8 -8,0 z M 96,256 l 8,0 0,8 -8,0 z M 112,256 l 8,0 0,8 -8,0 z M 120,256 l 8,0 0,8 -8,0 z M 128,256 l 8,0 0,8 -8,0 z M 144,256 l 8,0 0,8 -8,0 z M 152,256 l 8,0 0,8 -8,0 z M 160,256 l 8,0 0,8 -8,0 z M 168,256 l 8,0 0,8 -8,0 z M 176,256 l 8,0 0,8 -8,0 z M 200,256 l 8,0 0,8 -8,0 z M 208,256 l 8,0 0,8 -8,0 z M 224,256 l 8,0 0,8 -8,0 z M 232,256 l 8,0 0,8 -8,0 z M 240,256 l 8,0 0,8 -8,0 z M 248,256 l 8,0 0,8 -8,0 z M 256,256 l 8,0 0,8 -8,0 z M 264,256 l 8,0 0,8 -8,0 z M 48,264 l 8,0 0,8 -8,0 z M 96,264 l 8,0 0,8 -8,0 z M 112,264 l 8,0 0,8 -8,0 z M 144,264 l 8,0 0,8 -8,0 z M 168,264 l 8,0 0,8 -8,0 z M 176,264 l 8,0 0,8 -8,0 z M 208,264 l 8,0 0,8 -8,0 z M 216,264 l 8,0 0,8 -8,0 z M 224,264 l 8,0 0,8 -8,0 z M 248,264 l 8,0 0,8 -8,0 z M 264,264 l 8,0 0,8 -8,0 z M 48,272 l 8,0 0,8 -8,0 z M 56,272 l 8,0 0,8 -8,0 z M 64,272 l 8,0 0,8 -8,0 z M 72,272 l 8,0 0,8 -8,0 z M 80,272 l 8,0 0,8 -8,0 z M 88,272 l 8,0 0,8 -8,0 z M 96,272 l 8,0 0,8 -8,0 z M 112,272 l 8,0 0,8 -8,0 z M 136,272 l 8,0 0,8 -8,0 z M 144,272 l 8,0 0,8 -8,0 z M 152,272 l 8,0 0,8 -8,0 z M 160,272 l 8,0 0,8 -8,0 z M 184,272 l 8,0 0,8 -8,0 z M 216,272 l 8,0 0,8 -8,0 z M 224,272 l 8,0 0,8 -8,0 z M 232,272 l 8,0 0,8 -8,0 z M 240,272 l 8,0 0,8 -8,0 z M 256,272 l 8,0 0,8 -8,0 z " />
	</g>
</svg>
